<svg xmlns="http://www.w3.org/2000/svg" xmlns:xlink="http://www.w3.org/1999/xlink" viewBox="0 0 707 629.07"><defs><style>.cls-1{isolation:isolate;}.cls-2{fill:#e9b48f;}.cls-3{fill:#d3a382;}.cls-4{fill:#030915;}.cls-5{fill:#192230;}.cls-12,.cls-18,.cls-6{fill:#fff;}.cls-7{fill:#9c9b9b;}.cls-19,.cls-7{mix-blend-mode:multiply;}.cls-8{fill:#3535fc;}.cls-9{font-size:14.29px;}.cls-14,.cls-9{font-family:MyriadPro-Regular, Myriad Pro;}.cls-10{letter-spacing:-0.01em;}.cls-11{letter-spacing:0em;}.cls-12,.cls-13{stroke:#000;stroke-miterlimit:10;}.cls-12{stroke-width:2px;}.cls-13{fill:#d1d1d1;}.cls-14{font-size:12.56px;}.cls-15{letter-spacing:-0.01em;}.cls-16{letter-spacing:-0.01em;}.cls-17{letter-spacing:-0.01em;}.cls-18{opacity:0.2;}.cls-19{fill:#b1b1b1;}</style></defs><title>2</title><g class="cls-1"><g id="Calque_1" data-name="Calque 1"><path class="cls-2" d="M156.54,500.9l40.75-88.1s14-23.45,39.77-24.2l104.8-6,27.42,49.76L261.72,443.79l-43.1,58.91" transform="translate(-23.77 -310.15)"/><path class="cls-2" d="M23.77,935H199.15l13.29-108.15s30-31.16,51.87-60.95l-107.77-265-29.07,68.25s-24.82,46.23-30.6,62.31c0,0-25.11,62-13.89,127.61Z" transform="translate(-23.77 -310.15)"/><path class="cls-2" d="M303.62,384l139.75-5s14.63,29.39-19.75,46.35l-54.34,7Z" transform="translate(-23.77 -310.15)"/><path class="cls-2" d="M411.4,515.79l92.81,17.94s20.2,31.42-30.15,47.09l-38.51-2.18Z" transform="translate(-23.77 -310.15)"/><path class="cls-2" d="M367.62,445.62,484,460.82s24.11,36.9-32.14,51.38l-48.21-6.65Z" transform="translate(-23.77 -310.15)"/><path class="cls-2" d="M264.32,765.9s25.79-16.74,40.29-68.51c0,0,17.83-51.56,4.34-125.49,0,0,100.13-1,139.44,8.14l-37-64.25-80.87-14.67,73.11,4.44-36-59.94-120.8-15.15L209.59,492.7l-53,8.2Z" transform="translate(-23.77 -310.15)"/><path class="cls-2" d="M204.2,646.8s19.25,133.36-81.27,133.42c0,0-27.07-2.69-39.94-21.15,0,0-5.56-34.2,1.63-82.73,0,0,10.42-42.93,19-60.4,0,0,27.73-26.25,72.58-50.22l69.49-62.42s25.72-23.57,42.32-7.7c0,0,19.74,17-14.32,51.7,0,0-49.52,53.41-63,77.67C210.66,625,203.9,640.71,204.2,646.8Z" transform="translate(-23.77 -310.15)"/><path class="cls-3" d="M465.91,472.77c-6.84-.81-13.64-1.82-20.45-2.79s-13.62-2-20.41-3.08-13.56-2.25-20.34-3.36L384.42,460c-6.78-1.18-13.51-2.5-20.26-3.76s-13.51-2.54-20.24-3.92L323.7,448.2l-20.17-4.26,2.68-1c-6.89,8.49-13.78,17-20.81,25.36-3.49,4.22-7.09,8.33-10.64,12.51s-7.11,8.32-10.76,12.4c3-4.57,6.12-9.09,9.25-13.57s6.2-9,9.4-13.47c6.32-8.93,12.78-17.75,19.24-26.58l1-1.32,1.72.31,20.3,3.62L345.13,446c6.76,1.25,13.49,2.61,20.23,4s13.48,2.66,20.19,4.11l20.17,4.3c6.71,1.51,13.43,2.93,20.12,4.52s13.4,3.11,20.07,4.8S459.27,471,465.91,472.77Z" transform="translate(-23.77 -310.15)"/><path class="cls-3" d="M468.41,563.52c-6.44-2.17-12.8-4.53-19.18-6.85s-12.74-4.69-19.07-7.12-12.63-4.93-19-7.38l-18.87-7.58c-6.3-2.52-12.54-5.16-18.8-7.76s-12.52-5.2-18.74-7.91l-18.68-8.05-18.6-8.23,3.06-.67c-6.44,6.65-12.89,13.32-19.45,19.87-3.25,3.3-6.63,6.49-9.93,9.74s-6.65,6.48-10.07,9.63c2.82-3.7,5.72-7.32,8.66-10.92s5.8-7.25,8.78-10.8c5.92-7.15,12-14.18,18-21.21l1.23-1.43,1.85.74,18.86,7.63,18.79,7.8c6.27,2.58,12.49,5.28,18.72,7.95s12.47,5.32,18.66,8.1l18.59,8.27c6.17,2.82,12.36,5.57,18.5,8.47s12.3,5.74,18.4,8.74S462.37,560.4,468.41,563.52Z" transform="translate(-23.77 -310.15)"/><path class="cls-4" d="M527,741.66A15.91,15.91,0,0,1,511.1,757.6H267.21a15.91,15.91,0,0,1-15.88-15.94V326.09a15.91,15.91,0,0,1,15.88-15.94H511.1A15.91,15.91,0,0,1,527,326.09Z" transform="translate(-23.77 -310.15)"/><rect class="cls-5" x="240.04" y="12.74" width="251.81" height="422.19"/><rect class="cls-6" x="261.59" y="47.82" width="208.72" height="350.68"/><path class="cls-6" d="M415.44,335.77a2.83,2.83,0,0,1-2.84,2.84H357a2.84,2.84,0,0,1-2.84-2.84h0a2.84,2.84,0,0,1,2.84-2.85H412.6a2.84,2.84,0,0,1,2.84,2.85Z" transform="translate(-23.77 -310.15)"/><ellipse class="cls-6" cx="398.09" cy="25.05" rx="3.4" ry="3.41"/><path class="cls-6" d="M417.13,723.83a5.68,5.68,0,0,1-5.67,5.69H368a5.68,5.68,0,0,1-5.67-5.69h0a5.68,5.68,0,0,1,5.67-5.69h43.48a5.68,5.68,0,0,1,5.67,5.69Z" transform="translate(-23.77 -310.15)"/><path class="cls-7" d="M362.33,724a5.68,5.68,0,0,0,5.66,5.5h43.48a5.68,5.68,0,0,0,5.66-5.5Z" transform="translate(-23.77 -310.15)"/><rect class="cls-6" x="261.23" y="47.85" width="209" height="351"/><image width="1000" height="600" transform="translate(296.23 69.85) scale(0.15)" xlink:href="logo-entreprise/logo.png"/><rect class="cls-8" x="385.23" y="54.85" width="82.86" height="20" rx="10" ry="10"/><text class="cls-9" transform="translate(394.51 69.14)"><tspan class="cls-10">C</tspan><tspan x="8.13" y="0">onn</tspan><tspan class="cls-11" x="31.83" y="0">e</tspan><tspan x="38.94" y="0">xion</tspan></text><rect class="cls-12" x="273.23" y="138.85" width="188" height="28" rx="12" ry="12"/><rect class="cls-13" x="292.73" y="183.35" width="148.88" height="24.5" rx="12" ry="12"/><text class="cls-14" transform="translate(319.11 199.06)">Lan<tspan class="cls-15" x="18.96" y="0">c</tspan><tspan x="24.51" y="0">er la </tspan><tspan class="cls-16" x="49.26" y="0">r</tspan><tspan x="53.25" y="0">eche</tspan><tspan class="cls-17" x="78.44" y="0">r</tspan><tspan x="82.42" y="0">che</tspan></text><image width="1920" height="1080" transform="translate(278.23 224.85) scale(0.09 0.1)" xlink:href="carte-visite/model/model entreprise/carte1.png"/><path class="cls-18" d="M267.21,310.15a15.91,15.91,0,0,0-15.88,15.94V741.66a15.91,15.91,0,0,0,15.88,15.94H511.1A15.91,15.91,0,0,0,527,741.66Z" transform="translate(-23.77 -310.15)"/><path class="cls-3" d="M212.74,643s18.09,120.15-82.43,120.21c0,0-27.07-2.7-39.94-21.15,0,0-5.56-34.2,1.63-82.73,0,0,10.42-42.93,19-60.4,0,0,27.73-26.25,72.58-50.22l69.49-62.42s25.73-23.56,42.32-7.69c0,0,27.63,26.14-6.42,60.84,0,0-40.15,44.25-62.67,73C226.29,612.42,211.72,631.42,212.74,643Z" transform="translate(-23.77 -310.15)"/><path class="cls-2" d="M204.2,646.8s19.25,133.36-81.27,133.42c0,0-27.07-2.69-39.94-21.15,0,0-5.56-34.2,1.63-82.73,0,0,10.42-42.93,19-60.4,0,0,27.73-26.25,72.58-50.22l69.49-62.42s25.72-23.57,42.32-7.7c0,0,19.74,17-14.32,51.7,0,0-49.52,53.41-63,77.67C210.66,625,203.9,640.71,204.2,646.8Z" transform="translate(-23.77 -310.15)"/><path class="cls-19" d="M679.67,825.82s33.08-59.26-.84-148.11L645.64,596.1a24.23,24.23,0,0,0-22.05-16c-22.34,3.09-14.47,27.26-14.47,27.26l21.55,61.18-34.26-73.21s-9.63-24.21-29.21-18c0,0-20.38,6.55-13,29.92l15.56,52.12-29.16-53.52C527.7,582.25,510.46,588,510.46,588c-20.4,7.82-13.87,28.23-13.87,28.23l13.52,45.65L442.86,518.19l-1.76-4c-5.33-14-12-22.81-24-18.24s-11.48,15.83-6.15,29.79l35.67,99.71v.26l2.73,7.39,33.48,93.6a30.34,30.34,0,0,0,1.83,3.88l6.79,19-42-26.81s-49.46-30.33-64.87-.82c0,0-4.91,12.7,21,26.58l81.14,63.34s35.05,37.4,77.79,52.44l26.35,67.48,138.72-21.84Z" transform="translate(-23.77 -310.15)"/><path class="cls-2" d="M475.73,711.74c4.42,12.6,18,16.78,31.36,12h0c13.39-4.78,20.65-18.87,16.22-31.47L451.12,518.06c-4.42-12.61-10.85-20.42-24.24-15.65h0c-13.38,4.78-14,15.12-9.58,27.72Z" transform="translate(-23.77 -310.15)"/><path class="cls-2" d="M400.52,744.11,482.63,812s35.21,39.75,78.93,56.47L587,939.22l143.74-19.09-49.33-88.63s35.67-60.68,2.95-153.83l-32.15-85.61a25,25,0,0,0-22.35-17.16c-23.14,2.63-15.63,27.94-15.63,27.94l20.67,64.09L601.45,590s-9.31-25.39-29.69-19.44c0,0-21.21,6.27-14.21,30.73l14.72,54.53-28.72-56.33c-12.69-24.88-30.63-19.4-30.63-19.4-21.26,7.59-15,29-15,29l12.77,47.76-65.73-151,1.17,111.75,17.13,50.56,25.94,79.25L446.5,718.49s-50.27-32.78-66.93-2.53C379.56,716,374.17,729,400.52,744.11Z" transform="translate(-23.77 -310.15)"/></g></g></svg>